{"Protocol":0,"Id":"8eb1ef72256d774f4ad19a792d431375","Path":"/tvseries/From/Season 3/From - S03E02 - When We Go WEBDL-1080p.mkv","EncoderPath":null,"EncoderProtocol":null,"Type":0,"Container":"mkv","Size":3495948685,"Name":"From - S03E02 - When We Go WEBDL-1080p","IsRemote":false,"ETag":"8dd950800bf11a86447e658faa791c13","RunTimeTicks":35595840000,"ReadAtNativeFramerate":false,"IgnoreDts":false,"IgnoreIndex":false,"GenPtsInput":false,"SupportsTranscoding":true,"SupportsDirectStream":true,"SupportsDirectPlay":true,"IsInfiniteStream":false,"RequiresOpening":false,"OpenToken":null,"RequiresClosing":false,"LiveStreamId":null,"BufferMs":null,"RequiresLooping":false,"SupportsProbing":true,"VideoType":0,"IsoType":null,"Video3DFormat":null,"MediaStreams":[{"Codec":"h264","CodecTag":null,"Language":null,"ColorRange":null,"ColorSpace":"bt709","ColorTransfer":"bt709","ColorPrimaries":"bt709","DvVersionMajor":null,"DvVersionMinor":null,"DvProfile":null,"DvLevel":null,"RpuPresentFlag":null,"ElPresentFlag":null,"BlPresentFlag":null,"DvBlSignalCompatibilityId":null,"Comment":null,"TimeBase":"1/1000","CodecTimeBase":null,"Title":null,"VideoRange":1,"VideoRangeType":1,"VideoDoViTitle":null,"AudioSpatialFormat":0,"LocalizedUndefined":null,"LocalizedDefault":null,"LocalizedForced":null,"LocalizedExternal":null,"LocalizedHearingImpaired":null,"DisplayTitle":"1080p H264 SDR","NalLengthSize":"4","IsInterlaced":false,"IsAVC":true,"ChannelLayout":null,"BitRate":7856982,"BitDepth":8,"RefFrames":1,"PacketLength":null,"Channels":null,"SampleRate":null,"IsDefault":true,"IsForced":false,"IsHearingImpaired":false,"Height":1080,"Width":1920,"AverageFrameRate":23.976025,"RealFrameRate":23.976025,"Profile":"High","Type":1,"AspectRatio":"16:9","Index":0,"Score":null,"IsExternal":false,"DeliveryMethod":null,"DeliveryUrl":null,"IsExternalUrl":null,"IsTextSubtitleStream":false,"SupportsExternalStream":false,"Path":null,"PixelFormat":"yuv420p","Level":40,"IsAnamorphic":false},{"Codec":"eac3","CodecTag":null,"Language":"eng","ColorRange":null,"ColorSpace":null,"ColorTransfer":null,"ColorPrimaries":null,"DvVersionMajor":null,"DvVersionMinor":null,"DvProfile":null,"DvLevel":null,"RpuPresentFlag":null,"ElPresentFlag":null,"BlPresentFlag":null,"DvBlSignalCompatibilityId":null,"Comment":null,"TimeBase":"1/1000","CodecTimeBase":null,"Title":null,"VideoRange":0,"VideoRangeType":0,"VideoDoViTitle":null,"AudioSpatialFormat":0,"LocalizedUndefined":null,"LocalizedDefault":"Default","LocalizedForced":null,"LocalizedExternal":"External","LocalizedHearingImpaired":null,"DisplayTitle":"English - Dolby Digital\u002B - 5.1 - Default","NalLengthSize":null,"IsInterlaced":false,"IsAVC":false,"ChannelLayout":"5.1","BitRate":640000,"BitDepth":null,"RefFrames":null,"PacketLength":null,"Channels":6,"SampleRate":48000,"IsDefault":true,"IsForced":false,"IsHearingImpaired":false,"Height":null,"Width":null,"AverageFrameRate":null,"RealFrameRate":null,"Profile":null,"Type":0,"AspectRatio":null,"Index":1,"Score":null,"IsExternal":false,"DeliveryMethod":null,"DeliveryUrl":null,"IsExternalUrl":null,"IsTextSubtitleStream":false,"SupportsExternalStream":false,"Path":null,"PixelFormat":null,"Level":0,"IsAnamorphic":null},{"Codec":"subrip","CodecTag":null,"Language":"eng","ColorRange":null,"ColorSpace":null,"ColorTransfer":null,"ColorPrimaries":null,"DvVersionMajor":null,"DvVersionMinor":null,"DvProfile":null,"DvLevel":null,"RpuPresentFlag":null,"ElPresentFlag":null,"BlPresentFlag":null,"DvBlSignalCompatibilityId":null,"Comment":null,"TimeBase":"1/1000","CodecTimeBase":null,"Title":"English (SDH)","VideoRange":0,"VideoRangeType":0,"VideoDoViTitle":null,"AudioSpatialFormat":0,"LocalizedUndefined":"Undefined","LocalizedDefault":"Default","LocalizedForced":"Forced","LocalizedExternal":"External","LocalizedHearingImpaired":"Hearing Impaired","DisplayTitle":"English (SDH) - SUBRIP","NalLengthSize":null,"IsInterlaced":false,"IsAVC":false,"ChannelLayout":null,"BitRate":null,"BitDepth":null,"RefFrames":null,"PacketLength":null,"Channels":null,"SampleRate":null,"IsDefault":false,"IsForced":false,"IsHearingImpaired":false,"Height":0,"Width":0,"AverageFrameRate":null,"RealFrameRate":null,"Profile":null,"Type":2,"AspectRatio":null,"Index":2,"Score":null,"IsExternal":false,"DeliveryMethod":null,"DeliveryUrl":null,"IsExternalUrl":null,"IsTextSubtitleStream":true,"SupportsExternalStream":true,"Path":null,"PixelFormat":null,"Level":0,"IsAnamorphic":null}],"MediaAttachments":[],"Formats":[],"Bitrate":8496982,"Timestamp":null,"RequiredHttpHeaders":{},"TranscodingUrl":null,"TranscodingSubProtocol":0,"TranscodingContainer":null,"AnalyzeDurationMs":null,"DefaultAudioStreamIndex":null,"DefaultSubtitleStreamIndex":null}

/usr/lib/jellyfin-ffmpeg/ffmpeg -analyzeduration 200M -probesize 1G -fflags +genpts -f matroska  -i file:"/tvseries/From/Season 3/From - S03E02 - When We Go WEBDL-1080p.mkv" -map_metadata -1 -map_chapters -1 -threads 0 -map 0:0 -map 0:1 -map -0:s -codec:v:0 copy -bsf:v h264_mp4toannexb -start_at_zero -codec:a:0 libfdk_aac -ac 2 -ab 256000 -af "volume=2" -copyts -avoid_negative_ts disabled -max_muxing_queue_size 2048 -f hls -max_delay 5000000 -hls_time 6 -hls_segment_type fmp4 -hls_fmp4_init_filename "d79f84f041538c4abc2562f4a2d3b3eb-1.mp4" -start_number 0 -hls_segment_filename "/config/cache/transcodes/d79f84f041538c4abc2562f4a2d3b3eb%d.mp4" -hls_playlist_type vod -hls_list_size 0 -y "/config/cache/transcodes/d79f84f041538c4abc2562f4a2d3b3eb.m3u8"


ffmpeg version 6.0.1-Jellyfin Copyright (c) 2000-2023 the FFmpeg developers
  built with gcc 11 (Ubuntu 11.4.0-1ubuntu1~22.04)
  configuration: --prefix=/usr/lib/jellyfin-ffmpeg --target-os=linux --extra-version=Jellyfin --disable-doc --disable-ffplay --disable-ptx-compression --disable-static --disable-libxcb --disable-sdl2 --disable-xlib --enable-lto --enable-gpl --enable-version3 --enable-shared --enable-gmp --enable-gnutls --enable-chromaprint --enable-opencl --enable-libdrm --enable-libxml2 --enable-libass --enable-libfreetype --enable-libfribidi --enable-libfontconfig --enable-libbluray --enable-libmp3lame --enable-libopus --enable-libtheora --enable-libvorbis --enable-libopenmpt --enable-libdav1d --enable-libsvtav1 --enable-libwebp --enable-libvpx --enable-libx264 --enable-libx265 --enable-libzvbi --enable-libzimg --enable-libfdk-aac --arch=arm64 --cross-prefix=/usr/bin/aarch64-linux-gnu- --toolchain=hardened --enable-cross-compile --enable-rkmpp --enable-rkrga
  libavutil      58.  2.100 / 58.  2.100
  libavcodec     60.  3.100 / 60.  3.100
  libavformat    60.  3.100 / 60.  3.100
  libavdevice    60.  1.100 / 60.  1.100
  libavfilter     9.  3.100 /  9.  3.100
  libswscale      7.  1.100 /  7.  1.100
  libswresample   4. 10.100 /  4. 10.100
  libpostproc    57.  1.100 / 57.  1.100
Input #0, matroska,webm, from 'file:/tvseries/From/Season 3/From - S03E02 - When We Go WEBDL-1080p.mkv':
  Metadata:
    encoder         : libebml v1.4.4 + libmatroska v1.7.1
  Duration: 00:59:19.58, start: 0.000000, bitrate: 7856 kb/s
  Stream #0:0: Video: h264 (High), yuv420p(tv, bt709, progressive), 1920x1080 [SAR 1:1 DAR 16:9], 23.98 fps, 23.98 tbr, 1k tbn (default)
    Metadata:
      BPS             : 7214899
      DURATION        : 00:59:19.556000000
      NUMBER_OF_FRAMES: 85344
      NUMBER_OF_BYTES : 3210230009
      _STATISTICS_WRITING_APP: mkvmerge v82.0 ('I'm The President') 64-bit
      _STATISTICS_TAGS: BPS DURATION NUMBER_OF_FRAMES NUMBER_OF_BYTES
  Stream #0:1(eng): Audio: eac3, 48000 Hz, 5.1(side), fltp, 640 kb/s (default)
    Metadata:
      BPS             : 640000
      DURATION        : 00:59:19.584000000
      NUMBER_OF_FRAMES: 111237
      NUMBER_OF_BYTES : 284766720
      _STATISTICS_WRITING_APP: mkvmerge v82.0 ('I'm The President') 64-bit
      _STATISTICS_TAGS: BPS DURATION NUMBER_OF_FRAMES NUMBER_OF_BYTES
  Stream #0:2(eng): Subtitle: subrip
    Metadata:
      title           : English (SDH)
      BPS             : 59
      DURATION        : 00:58:04.272000000
      NUMBER_OF_FRAMES: 908
      NUMBER_OF_BYTES : 26052
      _STATISTICS_WRITING_APP: mkvmerge v82.0 ('I'm The President') 64-bit
      _STATISTICS_TAGS: BPS DURATION NUMBER_OF_FRAMES NUMBER_OF_BYTES
Stream mapping:
  Stream #0:0 -> #0:0 (copy)
  Stream #0:1 -> #0:1 (eac3 (native) -> aac (libfdk_aac))
Press [q] to stop, [?] for help
[hls @ 0x5592ef2f80] Opening '/config/cache/transcodes/d79f84f041538c4abc2562f4a2d3b3eb-1.mp4' for writing
Output #0, hls, to '/config/cache/transcodes/d79f84f041538c4abc2562f4a2d3b3eb.m3u8':
  Metadata:
    encoder         : Lavf60.3.100
  Stream #0:0: Video: h264 (High), yuv420p(tv, bt709, progressive), 1920x1080 [SAR 1:1 DAR 16:9], q=2-31, 23.98 fps, 23.98 tbr, 24k tbn (default)
  Stream #0:1: Audio: aac, 48000 Hz, stereo, s16, 256 kb/s (default)
    Metadata:
      encoder         : Lavc60.3.100 libfdk_aac
frame=    1 fps=0.0 q=-1.0 size=N/A time=-00:00:00.04 bitrate=N/A speed=N/A    
frame=   66 fps=0.0 q=-1.0 size=N/A time=00:00:00.18 bitrate=N/A speed=0.374x    
[hls @ 0x5592ef2f80] Opening '/config/cache/transcodes/d79f84f041538c4abc2562f4a2d3b3eb0.mp4' for writing
frame=  145 fps=140 q=-1.0 size=N/A time=00:00:03.34 bitrate=N/A speed=3.24x    
frame=  161 fps=105 q=-1.0 size=N/A time=00:00:04.22 bitrate=N/A speed=2.75x    
frame=  235 fps=115 q=-1.0 size=N/A time=00:00:07.24 bitrate=N/A speed=3.56x    
[hls @ 0x5592ef2f80] Opening '/config/cache/transcodes/d79f84f041538c4abc2562f4a2d3b3eb1.mp4' for writing
frame=  344 fps=135 q=-1.0 size=N/A time=00:00:11.83 bitrate=N/A speed=4.66x    
[hls @ 0x5592ef2f80] Opening '/config/cache/transcodes/d79f84f041538c4abc2562f4a2d3b3eb2.mp4' for writing
frame=  433 fps=128 q=-1.0 size=N/A time=00:00:15.56 bitrate=N/A speed=4.59x    
frame=  514 fps=132 q=-1.0 size=N/A time=00:00:18.83 bitrate=N/A speed=4.84x    
[hls @ 0x5592ef2f80] Opening '/config/cache/transcodes/d79f84f041538c4abc2562f4a2d3b3eb3.mp4' for writing
frame=  577 fps=121 q=-1.0 size=N/A time=00:00:21.56 bitrate=N/A speed=4.54x    
frame=  657 fps=125 q=-1.0 size=N/A time=00:00:24.89 bitrate=N/A speed=4.74x    
[hls @ 0x5592ef2f80] Opening '/config/cache/transcodes/d79f84f041538c4abc2562f4a2d3b3eb4.mp4' for writing
frame=  729 fps=127 q=-1.0 size=N/A time=00:00:27.85 bitrate=N/A speed=4.84x    
frame=  829 fps=133 q=-1.0 size=N/A time=00:00:32.12 bitrate=N/A speed=5.14x    
[hls @ 0x5592ef2f80] Opening '/config/cache/transcodes/d79f84f041538c4abc2562f4a2d3b3eb5.mp4' for writing
frame=  865 fps=127 q=-1.0 size=N/A time=00:00:33.59 bitrate=N/A speed=4.92x    
frame=  959 fps=131 q=-1.0 size=N/A time=00:00:37.32 bitrate=N/A speed=5.08x    
[hls @ 0x5592ef2f80] Opening '/config/cache/transcodes/d79f84f041538c4abc2562f4a2d3b3eb6.mp4' for writing
frame= 1062 fps=135 q=-1.0 size=N/A time=00:00:41.68 bitrate=N/A speed=5.31x    
[hls @ 0x5592ef2f80] Opening '/config/cache/transcodes/d79f84f041538c4abc2562f4a2d3b3eb7.mp4' for writing
frame= 1153 fps=131 q=-1.0 size=N/A time=00:00:45.58 bitrate=N/A speed=5.17x    
frame= 1240 fps=133 q=-1.0 size=N/A time=00:00:49.21 bitrate=N/A speed=5.28x    
[hls @ 0x5592ef2f80] Opening '/config/cache/transcodes/d79f84f041538c4abc2562f4a2d3b3eb8.mp4' for writing
frame= 1321 fps=135 q=-1.0 size=N/A time=00:00:52.49 bitrate=N/A speed=5.35x    
frame= 1388 fps=135 q=-1.0 size=N/A time=00:00:55.29 bitrate=N/A speed=5.36x    
[hls @ 0x5592ef2f80] Opening '/config/cache/transcodes/d79f84f041538c4abc2562f4a2d3b3eb9.mp4' for writing
frame= 1441 fps=125 q=-1.0 size=N/A time=00:00:57.59 bitrate=N/A speed=4.99x    

[q] command received. Exiting.

[hls @ 0x5592ef2f80] Opening '/config/cache/transcodes/d79f84f041538c4abc2562f4a2d3b3eb10.mp4' for writing
frame= 1453 fps=124 q=-1.0 Lsize=N/A time=00:00:58.15 bitrate=N/A speed=4.96x    
video:54388kB audio:1901kB subtitle:0kB other streams:0kB global headers:0kB muxing overhead: unknown